# xmcd
# Track frame offsets:
# 150
# 22882
# 42106
# 59090
# 78618
# 97898
# 114742
# 134074
# 150310
# 171802
# 190202
#
# Disc length: 2864 seconds
# Revision: 0
# Processed by: cddbd v1.5.2PL0 Copyright (c) Steve Scherf et al.
# Submitted via: VisiTrax 2.10.3.257 - For more info visit www.synapsa.com
#
DISCID=8d0b2e0b
DTITLE=Neely, Sam - Sam Neely
DYEAR=2000
DGENRE=Folk
TTITLE0=Old Irish
TTITLE1=Writing On The Wall
TTITLE2=You're Just Not In Love
TTITLE3=They're In Love
TTITLE4=Father And Son (Sam And Jason Neely)
TTITLE5=Everyday Lover
TTITLE6=This Ain't It
TTITLE7=Next Time Around
TTITLE8=I'm Everybody
TTITLE9=Chapter 22
TTITLE10=American Trilogy
EXTD=
EXTT0=
EXTT1=
EXTT2=
EXTT3=
EXTT4=
EXTT5=
EXTT6=
EXTT7=
EXTT8=
EXTT9=
EXTT10=
PLAYORDER=
